<?xml version="1.0" encoding="UTF-8"?>
<!--Generator: Apple Native CoreSVG 175.5-->
<!DOCTYPE svg
PUBLIC "-//W3C//DTD SVG 1.1//EN"
       "http://www.w3.org/Graphics/SVG/1.1/DTD/svg11.dtd">
<svg version="1.1" xmlns="http://www.w3.org/2000/svg" xmlns:xlink="http://www.w3.org/1999/xlink" width="31.347" height="37.3234">
 <g>
  <rect height="37.3234" opacity="0" width="31.347" x="0" y="0"/>
  <path d="M0 18.6684C0 27.2564 7.09391 34.3395 15.6711 34.3395C24.2639 34.3395 31.347 27.2564 31.347 18.6684C31.347 13.2973 28.5455 8.5156 24.3458 5.6906C23.8181 5.29013 23.167 5.43294 22.8733 5.91857C22.5844 6.41982 22.7391 6.98466 23.2295 7.3431C26.8967 9.76169 29.3097 13.9258 29.3205 18.6684C29.3312 26.2275 23.2302 32.3129 15.6711 32.3129C8.11203 32.3129 2.03735 26.2275 2.03735 18.6684C2.03735 12.0981 6.63297 6.63982 12.8008 5.33966L12.8008 7.90341C12.8008 8.8045 13.4259 9.06747 14.1594 8.55013L19.0227 5.14216C19.6192 4.73044 19.63 4.11122 19.0227 3.67794L14.1702 0.269969C13.4259-0.258156 12.8008 0.00481262 12.8008 0.916689L12.8008 3.26513C5.55125 4.63481 0 11.0584 0 18.6684ZM10.9433 24.9633C11.417 24.9633 11.7398 24.6237 11.7398 24.1031L11.7398 13.7593C11.7398 13.1417 11.4063 12.7973 10.8436 12.7973C10.4788 12.7973 10.2341 12.9089 9.78406 13.2112L7.3711 14.8145C7.07953 15.0268 6.94641 15.2451 6.94641 15.5367C6.94641 15.9506 7.27625 16.2912 7.68422 16.2912C7.91329 16.2912 8.03079 16.2433 8.25016 16.0718L10.1511 14.7504L10.1791 14.7504L10.1791 24.1031C10.1791 24.6129 10.4814 24.9633 10.9433 24.9633ZM19.0261 25.1895C21.5956 25.1895 23.3144 23.537 23.3144 21.0601C23.3144 18.7923 21.7481 17.1468 19.4944 17.1468C18.447 17.1468 17.3398 17.6554 16.8561 18.4814L16.8809 18.4814L17.195 14.4561L22.2361 14.4561C22.6166 14.4561 22.9297 14.1537 22.9297 13.729C22.9297 13.3043 22.6166 13.0284 22.2361 13.0284L16.9309 13.0284C16.2638 13.0284 15.893 13.4051 15.8342 14.0831L15.4722 18.9512C15.4134 19.5726 15.7373 19.8895 16.2989 19.8895C16.7128 19.8895 16.8928 19.8006 17.2539 19.5198C17.9494 18.8131 18.55 18.5411 19.3252 18.5411C20.7511 18.5411 21.7283 19.5625 21.7283 21.0914C21.7283 22.6359 20.6153 23.7618 19.1102 23.7618C18.0091 23.7618 17.0475 23.1143 16.68 22.1808C16.5038 21.8326 16.2709 21.6478 15.9384 21.6478C15.5245 21.6478 15.2378 21.9501 15.2378 22.3748C15.2378 22.5548 15.2702 22.7143 15.3397 22.8787C15.7266 24.1151 17.1694 25.1895 19.0261 25.1895Z" fill="#ffffff" fill-opacity="0.85"/>
 </g>
</svg>
