<?xml version="1.0" encoding="UTF-8"?>
<!--Generator: Apple Native CoreSVG 232.5-->
<!DOCTYPE svg
PUBLIC "-//W3C//DTD SVG 1.1//EN"
       "http://www.w3.org/Graphics/SVG/1.1/DTD/svg11.dtd">
<svg version="1.1" xmlns="http://www.w3.org/2000/svg" xmlns:xlink="http://www.w3.org/1999/xlink" width="34.4375" height="34.3281">
 <g>
  <rect height="34.3281" opacity="0" width="34.4375" x="0" y="0"/>
  <path d="M9.60938 34.3281C10.375 34.3281 10.9062 33.9219 11.8594 33.0781L17.25 28.2812L27.2812 28.2812C31.9375 28.2812 34.4375 25.7031 34.4375 21.125L34.4375 9.15625C34.4375 4.57812 31.9375 2 27.2812 2L7.15625 2C2.5 2 0 4.5625 0 9.15625L0 21.125C0 25.7188 2.5 28.2812 7.15625 28.2812L7.90625 28.2812L7.90625 32.3438C7.90625 33.5469 8.51562 34.3281 9.60938 34.3281ZM10.25 31.4688L10.25 26.9375C10.25 26.0938 9.92188 25.7656 9.07812 25.7656L7.15625 25.7656C4 25.7656 2.51562 24.1562 2.51562 21.1094L2.51562 9.15625C2.51562 6.10938 4 4.51562 7.15625 4.51562L27.2812 4.51562C30.4219 4.51562 31.9219 6.10938 31.9219 9.15625L31.9219 21.1094C31.9219 24.1562 30.4219 25.7656 27.2812 25.7656L17.1562 25.7656C16.2812 25.7656 15.8438 25.8906 15.25 26.5Z" fill="#ffffff" fill-opacity="0.85"/>
  <path d="M9.17188 10.8281L25.0781 10.8281C25.5781 10.8281 25.9688 10.4375 25.9688 9.92188C25.9688 9.4375 25.5781 9.03125 25.0781 9.03125L9.17188 9.03125C8.67188 9.03125 8.26562 9.4375 8.26562 9.92188C8.26562 10.4375 8.67188 10.8281 9.17188 10.8281ZM9.17188 15.9219L25.0781 15.9219C25.5781 15.9219 25.9688 15.5156 25.9688 15C25.9688 14.5156 25.5781 14.1094 25.0781 14.1094L9.17188 14.1094C8.67188 14.1094 8.26562 14.5156 8.26562 15C8.26562 15.5156 8.67188 15.9219 9.17188 15.9219ZM9.17188 21L19.5156 21C20.0156 21 20.4062 20.6094 20.4062 20.1094C20.4062 19.5938 20.0156 19.1875 19.5156 19.1875L9.17188 19.1875C8.67188 19.1875 8.26562 19.5938 8.26562 20.1094C8.26562 20.6094 8.67188 21 9.17188 21Z" fill="#ffffff" fill-opacity="0.85"/>
 </g>
</svg>
