<svg xmlns="http://www.w3.org/2000/svg" width="40" height="22" viewBox="0 0 70 38">
    <g fill="#FFF">
        <path d="M14.468 11.158L14.468 24.308 21.396 24.308 21.396 26.917 11.205 26.917 11.205 11.158zM28.326 11.158L28.326 26.917 25.064 26.917 25.064 11.158zM35.224 11.158L38.792 23.009 42.38 11.158 46.013 11.158 40.499 26.917 37.095 26.917 31.603 11.158zM59.686 11.158L59.686 13.788 52.356 13.788 52.356 17.543 58.62 17.543 58.62 20.087 52.356 20.087 52.356 24.308 59.708 24.308 59.708 26.917 49.094 26.917 49.094 11.158z"/>
        <path d="M62.045 1.583c3.515 0 6.364 2.836 6.364 6.334v22.166c0 3.498-2.849 6.334-6.364 6.334H7.955c-3.515 0-6.364-2.836-6.364-6.334V7.917c0-3.498 2.849-6.334 6.364-6.334h54.09zm0 2.375H7.955c-2.11 0-3.835 1.634-3.97 3.698l-.008.26v22.167c0 2.099 1.641 3.816 3.716 3.95l.262.009h54.09c2.11 0 3.835-1.634 3.97-3.698l.008-.26V7.916c0-2.099-1.641-3.816-3.716-3.95l-.262-.009zm-47.577 7.2v13.15h6.928v2.609h-10.19v-15.76h3.262zm13.858 0v15.759h-3.262v-15.76h3.262zm6.898 0l3.568 11.851 3.588-11.851h3.633l-5.514 15.759h-3.404l-5.492-15.76h3.621zm24.462 0v2.63h-7.33v3.755h6.264v2.544h-6.264v4.221h7.352v2.609H49.094v-15.76h10.592z"/>
    </g>
</svg>
