<?xml version="1.0" encoding="UTF-8"?>
<!--Generator: Apple Native CoreSVG 232.5-->
<!DOCTYPE svg
PUBLIC "-//W3C//DTD SVG 1.1//EN"
       "http://www.w3.org/Graphics/SVG/1.1/DTD/svg11.dtd">
<svg version="1.1" xmlns="http://www.w3.org/2000/svg" xmlns:xlink="http://www.w3.org/1999/xlink" width="31.875" height="31.8906">
 <g>
  <rect height="31.8906" opacity="0" width="31.875" x="0" y="0"/>
  <path d="M15.9375 31.875C24.6562 31.875 31.875 24.6406 31.875 15.9375C31.875 7.21875 24.6406 0 15.9219 0C7.21875 0 0 7.21875 0 15.9375C0 24.6406 7.23438 31.875 15.9375 31.875ZM15.9375 29.2188C8.5625 29.2188 2.67188 23.3125 2.67188 15.9375C2.67188 8.5625 8.54688 2.65625 15.9219 2.65625C23.2969 2.65625 29.2188 8.5625 29.2188 15.9375C29.2188 23.3125 23.3125 29.2188 15.9375 29.2188Z" fill="#ffffff" fill-opacity="0.85"/>
  <path d="M18.4375 18.3438C19.4688 17.3125 19.4688 15.8438 18.4375 14.8125C18.25 14.625 17.8438 14.3281 17.5938 14.1562L10.0156 8.89062C9.64062 8.64062 9.26562 8.71875 9.03125 8.9375C8.8125 9.17188 8.73438 9.53125 9 9.90625L14.2656 17.4844C14.4375 17.7344 14.7344 18.1562 14.9219 18.3438C15.9531 19.3594 17.4219 19.3594 18.4375 18.3438ZM9.60938 23.5625C10.3438 23.5625 10.9531 22.9531 10.9531 22.2188C10.9531 21.4844 10.3438 20.875 9.60938 20.875C8.875 20.875 8.26562 21.4844 8.26562 22.2188C8.26562 22.9531 8.875 23.5625 9.60938 23.5625ZM6.96875 17.2812C7.70312 17.2812 8.3125 16.6719 8.3125 15.9375C8.3125 15.2031 7.70312 14.5938 6.96875 14.5938C6.23438 14.5938 5.625 15.2031 5.625 15.9375C5.625 16.6719 6.23438 17.2812 6.96875 17.2812ZM15.9219 8.3125C16.6562 8.3125 17.2656 7.70312 17.2656 6.96875C17.2656 6.23438 16.6562 5.625 15.9219 5.625C15.1875 5.625 14.5781 6.23438 14.5781 6.96875C14.5781 7.70312 15.1875 8.3125 15.9219 8.3125ZM22.2656 11C23 11 23.6094 10.3906 23.6094 9.65625C23.6094 8.90625 23 8.3125 22.2656 8.3125C21.5312 8.3125 20.9219 8.90625 20.9219 9.65625C20.9219 10.3906 21.5312 11 22.2656 11ZM24.9062 17.2812C25.6406 17.2812 26.25 16.6719 26.25 15.9375C26.25 15.2031 25.6406 14.5938 24.9062 14.5938C24.1719 14.5938 23.5625 15.2031 23.5625 15.9375C23.5625 16.6719 24.1719 17.2812 24.9062 17.2812ZM22.2656 23.5625C23 23.5625 23.6094 22.9531 23.6094 22.2188C23.6094 21.4844 23 20.875 22.2656 20.875C21.5312 20.875 20.9219 21.4844 20.9219 22.2188C20.9219 22.9531 21.5312 23.5625 22.2656 23.5625Z" fill="#ffffff" fill-opacity="0.85"/>
 </g>
</svg>
