<svg xmlns="http://www.w3.org/2000/svg" width="32" height="32" viewBox="0 0 32 32">
    <g fill-rule="evenodd">
        <path fill-rule="nonzero" d="M20.764 21.891c-.135.117-.272.231-.412.341-.301.238-.614.461-.938.667-.608.388-1.251.716-1.922.98-.66.261-1.346.46-2.048.592-.69.13-1.396.196-2.11.196-.374 0-.744-.018-1.112-.054-.19-.019-.38-.042-.568-.07-.546-.08-1.055.296-1.136.843-.081.546.296 1.055.842 1.136.222.032.445.06.669.082.431.042.867.063 1.304.063.84 0 1.669-.078 2.481-.23.827-.157 1.634-.39 2.412-.697.79-.312 1.547-.698 2.262-1.154.381-.242.75-.504 1.104-.784.164-.13.325-.264.483-.401.417-.362.462-.994.1-1.41-.363-.418-.995-.462-1.411-.1zM2.826 19.872c-.443.329-.536.955-.207 1.399.13.174.263.345.4.512.28.34.575.667.886.978.618.618 1.294 1.174 2.02 1.66.179.12.361.235.546.346.473.285 1.088.132 1.372-.341.285-.474.132-1.088-.341-1.373-.157-.094-.312-.192-.465-.295-.617-.413-1.192-.886-1.718-1.41-.264-.266-.516-.543-.754-.833-.116-.143-.23-.288-.34-.436-.329-.443-.955-.536-1.399-.207zM13.333 0c-3.45 0-6.68 1.32-9.112 3.598l-.008-.634-.013-.148c-.079-.481-.5-.845-1.001-.838-.553.008-.994.462-.986 1.014l.049 3.47.013.153c.091.545.62.926 1.18.815l3.406-.674.143-.04c.459-.163.741-.643.644-1.135l-.04-.143c-.163-.46-.643-.742-1.135-.644l-.76.15C7.763 3.077 10.457 2 13.332 2c6.26 0 11.334 5.074 11.334 11.333 0 .79-.08 1.568-.24 2.327-.079.38-.177.756-.295 1.125-.118.367-.254.728-.408 1.08-.075.174-.155.345-.24.514-.245.494-.044 1.094.45 1.34.494.247 1.095.045 1.341-.449.1-.199.193-.4.282-.604.182-.415.342-.84.48-1.273.139-.434.255-.877.349-1.325.186-.893.28-1.808.28-2.735C26.667 5.97 20.698 0 13.334 0zM1 12.333c-.552 0-1 .448-1 1 0 .88.085 1.75.254 2.601.047.239.1.475.16.71.137.535.682.858 1.217.721.535-.136.858-.681.721-1.216-.05-.2-.096-.4-.136-.603C2.073 14.823 2 14.083 2 13.333c0-.552-.448-1-1-1z" transform="translate(2.667 2.667)"/>
        <path d="M18.234 14.33l-7.015 4.28c-.55.336-1.268.162-1.604-.388-.111-.183-.17-.393-.17-.608V9.053c0-.645.522-1.167 1.166-1.167.215 0 .425.059.608.17l7.015 4.281c.55.336.724 1.054.388 1.604-.097.158-.23.292-.388.388z" transform="translate(2.667 2.667)"/>
    </g>
</svg>
