<?xml version="1.0" encoding="UTF-8"?>
<!--Generator: Apple Native CoreSVG 175.5-->
<!DOCTYPE svg
PUBLIC "-//W3C//DTD SVG 1.1//EN"
       "http://www.w3.org/Graphics/SVG/1.1/DTD/svg11.dtd">
<svg version="1.1" xmlns="http://www.w3.org/2000/svg" xmlns:xlink="http://www.w3.org/1999/xlink" width="31.347" height="37.3493">
 <g>
  <rect height="37.3493" opacity="0" width="31.347" x="0" y="0"/>
  <path d="M0 18.6814C0 27.2694 7.09391 34.3525 15.6711 34.3525C24.2639 34.3525 31.347 27.2694 31.347 18.6814C31.347 11.0762 25.7909 4.65264 18.5511 3.27811L18.5511 0.914047C18.5511 0.00810829 17.9259-0.254861 17.2033 0.262484L12.34 3.65967C11.7327 4.08702 11.7219 4.70624 12.34 5.13952L17.1925 8.54749C17.9259 9.07561 18.5511 8.81264 18.5511 7.90077L18.5511 5.35265C24.7189 6.65765 29.3097 12.1159 29.3097 18.6814C29.3097 26.2405 23.2302 32.3259 15.6711 32.3259C8.11203 32.3259 2.01579 26.2405 2.02657 18.6814C2.03735 13.9387 4.45032 9.77468 8.1175 7.35608C8.60797 6.99765 8.76266 6.4328 8.46891 5.93155C8.17516 5.44592 7.5289 5.30311 7.00125 5.70358C2.79672 8.52858 0 13.3103 0 18.6814ZM11.1134 24.9762C11.592 24.9762 11.91 24.6367 11.91 24.1161L11.91 13.7723C11.91 13.1547 11.5813 12.8103 11.0186 12.8103C10.6538 12.8103 10.4042 12.9219 9.95906 13.2242L7.54125 14.8275C7.25453 15.0398 7.11656 15.2581 7.11656 15.5497C7.11656 15.9636 7.44047 16.3042 7.85438 16.3042C8.08828 16.3042 8.20094 16.2562 8.42516 16.0848L10.3261 14.7634L10.3492 14.7634L10.3492 24.1161C10.3492 24.6259 10.6516 24.9762 11.1134 24.9762ZM19.2011 25.2025C21.7706 25.2025 23.4845 23.55 23.4845 21.0731C23.4845 18.8053 21.9231 17.1598 19.6694 17.1598C18.6172 17.1598 17.5148 17.6684 17.0311 18.4944L17.0511 18.4944L17.37 14.4691L22.4111 14.4691C22.7916 14.4691 23.1047 14.1667 23.1047 13.742C23.1047 13.3173 22.7916 13.0414 22.4111 13.0414L17.1011 13.0414C16.4388 13.0414 16.0631 13.4181 16.0044 14.0961L15.6472 18.9642C15.5884 19.5856 15.9123 19.9025 16.4739 19.9025C16.8878 19.9025 17.0678 19.8136 17.4289 19.5328C18.1244 18.8261 18.7202 18.5541 19.4894 18.5541C20.9261 18.5541 21.9033 19.5755 21.9033 21.1044C21.9033 22.6489 20.7903 23.7748 19.2852 23.7748C18.1792 23.7748 17.2225 23.1273 16.8502 22.1937C16.6788 21.8456 16.4411 21.6608 16.1086 21.6608C15.6947 21.6608 15.4128 21.9631 15.4128 22.3878C15.4128 22.5678 15.4403 22.7273 15.4991 22.8917C15.9016 24.1281 17.3444 25.2025 19.2011 25.2025Z" fill="#ffffff" fill-opacity="0.85"/>
 </g>
</svg>
