<?xml version="1.0" encoding="UTF-8"?>
<!--Generator: Apple Native CoreSVG 232.5-->
<!DOCTYPE svg
PUBLIC "-//W3C//DTD SVG 1.1//EN"
       "http://www.w3.org/Graphics/SVG/1.1/DTD/svg11.dtd">
<svg version="1.1" xmlns="http://www.w3.org/2000/svg" xmlns:xlink="http://www.w3.org/1999/xlink" width="29.7812" height="29.8281">
 <g>
  <rect height="29.8281" opacity="0" width="29.7812" x="0" y="0"/>
  <path d="M1.4375 12.6406C2.26562 12.6406 2.85938 12.0156 2.85938 11.1875L2.85938 9.875L2.54688 4.42188L6.65625 8.75L11.4688 13.5938C11.7344 13.875 12.0781 14 12.4531 14C13.3438 14 14 13.4219 14 12.5469C14 12.125 13.8594 11.75 13.5781 11.4688L8.75 6.65625L4.42188 2.54688L9.89062 2.85938L11.1875 2.85938C12.0156 2.85938 12.6562 2.28125 12.6562 1.4375C12.6562 0.59375 12.0312 0 11.1875 0L2.51562 0C0.921875 0 0 0.921875 0 2.51562L0 11.1875C0 12 0.609375 12.6406 1.4375 12.6406ZM18.5781 29.8125L27.25 29.8125C28.8438 29.8125 29.7812 28.8906 29.7812 27.2969L29.7812 18.625C29.7812 17.8125 29.1719 17.1719 28.3281 17.1719C27.5156 17.1719 26.9062 17.7969 26.9062 18.625L26.9062 19.9375L27.2344 25.3906L23.1094 21.0625L18.3125 16.2188C18.0469 15.9375 17.6875 15.8125 17.3125 15.8125C16.4375 15.8125 15.7656 16.3906 15.7656 17.2656C15.7656 17.6875 15.9219 18.0625 16.2031 18.3438L21.0156 23.1562L25.3594 27.2656L19.8906 26.9531L18.5781 26.9531C17.75 26.9531 17.1094 27.5312 17.1094 28.375C17.1094 29.2188 17.75 29.8125 18.5781 29.8125Z" fill="#ffffff" fill-opacity="0.85"/>
 </g>
</svg>
