<svg xmlns="http://www.w3.org/2000/svg" width="32" height="32" viewBox="0 0 32 32">
    <path d="M16 2.667c13.333 0 13.333 5.97 13.333 13.333l-.008 1.83C29.238 24.329 28.21 29.334 16 29.334c-12.851 0-13.316-5.545-13.333-12.54l.005-2.386.006-.43.008-.424C2.838 7.358 4.18 2.667 16 2.667zm0 2c-5.49 0-8.484 1.018-9.89 2.86-1.035 1.357-1.383 3.126-1.436 6.798l-.007.882v1.581l.007.883c.053 3.676.401 5.445 1.437 6.802 1.405 1.842 4.4 2.86 9.889 2.86 5.669 0 8.664-1.078 10.021-3.042 1.04-1.504 1.296-3.261 1.312-7.825l-.003-1.379c-.03-4.234-.304-5.924-1.309-7.378C24.664 5.745 21.67 4.667 16 4.667zm-2.835 6c.214 0 .424.058.606.167l7.004 4.19c.55.33.723 1.032.388 1.57-.097.156-.23.286-.388.38l-7.004 4.192c-.549.329-1.265.158-1.6-.38-.112-.18-.171-.385-.171-.595v-8.382c0-.63.521-1.142 1.165-1.142z"/>
</svg>
